<svg xmlns="http://www.w3.org/2000/svg" width="255.782" height="258.646"><defs><linearGradient id="a" x1=".5" x2=".618" y2=".941" gradientUnits="objectBoundingBox"><stop offset="0" stop-color="#004c45"/><stop offset="1" stop-color="#adc9b8"/></linearGradient></defs><path data-name="Subtraction 120" d="M5048.479 17633.91h-.006a133.689 133.689 0 01-61.507-14.869 122.227 122.227 0 01-26.284-18.367 116.958 116.958 0 01-20.884-25.463 120.046 120.046 0 01-11.6-25.738 144.518 144.518 0 01-5.928-28.379 165.122 165.122 0 014.32-58.553 151.942 151.942 0 017.912-22.947 130.9 130.9 0 0111.335-20.664 108.38 108.38 0 0114.632-17.479 90.811 90.811 0 0117.8-13.387 94.426 94.426 0 0124.8-9.693 116.942 116.942 0 0127.276-3.107 148.045 148.045 0 0137.925 5.139 170.119 170.119 0 0136.66 14.5 161.822 161.822 0 0132.147 22.5 131.414 131.414 0 0124.384 29.131 107.651 107.651 0 0114.885 43.684 119.4 119.4 0 01.436 22.818 129.31 129.31 0 01-3.774 22.59 137.876 137.876 0 01-22.551 47.193 131.713 131.713 0 01-17.543 19.4 120.68 120.68 0 01-21.032 15.283 128.017 128.017 0 01-63.403 16.408zm-1.851-243.455c-62.678 0-113.67 51.822-113.67 115.521s50.992 115.521 113.67 115.521 113.666-51.822 113.666-115.521-50.994-115.521-113.666-115.521z" transform="translate(-4921.347 -17375.264)" fill="url(#a)"/></svg>