<svg xmlns="http://www.w3.org/2000/svg" width="257" height="257.338"><g data-name="Group 1213"><g data-name="Group 978"><g data-name="Group 977"><path data-name="Path 655" d="M128.332 257.338a123.492 123.492 0 01-49.776-10.158 129.918 129.918 0 01-68.4-68.4 128.259 128.259 0 010-100.058 129.471 129.471 0 0168.4-68.567 127.86 127.86 0 0199.889 0 129.472 129.472 0 0168.4 68.567 128.259 128.259 0 010 100.058 129.919 129.919 0 01-68.4 68.4 124.333 124.333 0 01-50.113 10.158zm.168-212.98a73.1 73.1 0 00-31.6 6.941 85.839 85.839 0 00-25.681 18.453 87.157 87.157 0 00-17.4 26.92 83.371 83.371 0 000 64.164 89.855 89.855 0 0017.4 26.92A84.292 84.292 0 0096.9 206.379a75.368 75.368 0 0063.186 0 84.294 84.294 0 0025.681-18.623 89.914 89.914 0 0017.4-26.92 83.347 83.347 0 000-64.164 87.213 87.213 0 00-17.4-26.92 85.841 85.841 0 00-25.681-18.453 73.1 73.1 0 00-31.586-6.937z" fill="#fff"/></g></g><g data-name="Group 980"><g data-name="Group 979" fill="#fff"><path data-name="Path 656" d="M90.329 141.981a13.064 13.064 0 01-5.266-1.075 13.736 13.736 0 01-7.236-7.236 13.57 13.57 0 010-10.586 13.692 13.692 0 017.236-7.254 13.525 13.525 0 0110.568 0 13.7 13.7 0 017.237 7.254 13.576 13.576 0 010 10.586 13.743 13.743 0 01-7.237 7.236 13.155 13.155 0 01-5.302 1.075zm.018-22.534a7.736 7.736 0 00-3.343.735 9.089 9.089 0 00-2.717 1.953 9.218 9.218 0 00-1.841 2.848 8.826 8.826 0 000 6.789 9.509 9.509 0 001.841 2.848 8.92 8.92 0 002.717 1.97 7.971 7.971 0 006.685 0 8.921 8.921 0 002.718-1.97 9.51 9.51 0 001.841-2.848 8.821 8.821 0 000-6.789 9.219 9.219 0 00-1.841-2.848 9.09 9.09 0 00-2.718-1.953 7.731 7.731 0 00-3.343-.735z"/><path data-name="Path 657" d="M141.127 115.291l-12.466 26.184h-.287l-12.433-26.184h5.517l7.058 15.19 7.057-15.19z"/><path data-name="Path 658" d="M166.6 141.981a13.067 13.067 0 01-5.267-1.075 13.745 13.745 0 01-7.236-7.236 13.571 13.571 0 010-10.586 13.7 13.7 0 017.236-7.254 13.526 13.526 0 0110.568 0 13.694 13.694 0 017.237 7.254 13.568 13.568 0 010 10.586 13.738 13.738 0 01-7.237 7.236 13.156 13.156 0 01-5.301 1.075zm.018-22.534a7.739 7.739 0 00-3.343.735 9.083 9.083 0 00-2.717 1.953 9.211 9.211 0 00-1.841 2.848 8.826 8.826 0 000 6.789 9.5 9.5 0 001.841 2.848 8.915 8.915 0 002.717 1.97 7.971 7.971 0 006.686 0 8.919 8.919 0 002.717-1.97 9.508 9.508 0 001.841-2.848 8.819 8.819 0 000-6.789 9.216 9.216 0 00-1.841-2.848 9.088 9.088 0 00-2.717-1.953 7.733 7.733 0 00-3.343-.735z"/><path data-name="Path 659" d="M100.204 154.081v.833h-3.54v-4.917h.941v4.084z"/><path data-name="Path 660" d="M104.126 154.914h-.94v-4.91h.94z"/><path data-name="Path 661" d="M108.533 150.83v1.215h2.372v.867h-2.372v2h-.94v-4.917h3.614v.833z"/><path data-name="Path 662" d="M115.169 150.83v1.229h2.378v.853h-2.378v1.155h2.68v.846h-3.62v-4.917h3.621v.833z"/><path data-name="Path 663" d="M130.129 153.705a2.369 2.369 0 01-.4.534 2.653 2.653 0 01-.521.41 2.546 2.546 0 01-1.306.359 2.452 2.452 0 01-.988-.2 2.578 2.578 0 01-1.357-1.357 2.525 2.525 0 010-1.975 2.575 2.575 0 011.357-1.356 2.443 2.443 0 01.988-.2 2.534 2.534 0 011.306.359 2.606 2.606 0 01.521.409 2.44 2.44 0 01.4.527l-.88.356a1.929 1.929 0 00-.252-.3 1.816 1.816 0 00-.319-.248 1.633 1.633 0 00-.369-.168 1.349 1.349 0 00-.4-.061 1.46 1.46 0 00-.628.138 1.676 1.676 0 00-.507.366 1.765 1.765 0 00-.343.534 1.654 1.654 0 000 1.273 1.77 1.77 0 00.343.53 1.65 1.65 0 00.507.366 1.446 1.446 0 00.628.138 1.351 1.351 0 00.4-.06 1.62 1.62 0 00.369-.168 1.729 1.729 0 00.319-.252 2.043 2.043 0 00.252-.305z"/><path data-name="Path 664" d="M136.651 154.081v.833h-3.54v-4.917h.94v4.084z"/><path data-name="Path 665" d="M140.574 154.914h-.94v-4.91h.94z"/><path data-name="Path 666" d="M148.211 154.914l-3.231-2.922v2.922h-.94v-4.91h.1l3.231 2.969v-2.969h.941v4.91z"/><path data-name="Path 667" d="M152.718 154.914h-.94v-4.91h.94z"/><path data-name="Path 668" d="M160.685 153.705a2.373 2.373 0 01-.4.534 2.637 2.637 0 01-.521.41 2.545 2.545 0 01-1.306.359 2.45 2.45 0 01-.987-.2 2.577 2.577 0 01-1.357-1.357 2.519 2.519 0 010-1.975 2.574 2.574 0 011.357-1.356 2.442 2.442 0 01.987-.2 2.533 2.533 0 011.306.359 2.591 2.591 0 01.521.409 2.445 2.445 0 01.4.527l-.881.356a1.9 1.9 0 00-.251-.3 1.83 1.83 0 00-.319-.248 1.631 1.631 0 00-.369-.168 1.35 1.35 0 00-.4-.061 1.458 1.458 0 00-.628.138 1.682 1.682 0 00-.507.366 1.764 1.764 0 00-.342.534 1.651 1.651 0 000 1.273 1.769 1.769 0 00.342.53 1.656 1.656 0 00.507.366 1.444 1.444 0 00.628.138 1.352 1.352 0 00.4-.06 1.618 1.618 0 00.369-.168 1.742 1.742 0 00.319-.252 2.01 2.01 0 00.251-.305z"/></g></g></g></svg>