<svg xmlns="http://www.w3.org/2000/svg" width="224" height="224.295"><defs><radialGradient id="a" cx=".188" cy=".305" r=".934" gradientTransform="translate(-.001)" gradientUnits="objectBoundingBox"><stop offset="0" stop-color="#0b352a"/><stop offset=".109" stop-color="#10392e"/><stop offset=".239" stop-color="#1e473b"/><stop offset=".379" stop-color="#365e50"/><stop offset=".527" stop-color="#587e6d"/><stop offset=".679" stop-color="#82a792"/><stop offset=".706" stop-color="#8baf9a"/><stop offset="1" stop-color="#cbdbd0"/></radialGradient></defs><g data-name="Group 994"><g data-name="Group 978"><g data-name="Group 977"><path data-name="Path 655" d="M384.443 496.533a107.635 107.635 0 01-43.385-8.854 113.236 113.236 0 01-59.614-59.615 111.79 111.79 0 010-87.21 112.846 112.846 0 0159.614-59.763 111.442 111.442 0 0187.063 0 112.847 112.847 0 0159.614 59.763 111.79 111.79 0 010 87.21 113.237 113.237 0 01-59.614 59.615 108.368 108.368 0 01-43.678 8.854zm.147-185.633a63.714 63.714 0 00-27.539 6.05 74.817 74.817 0 00-22.384 16.084A75.966 75.966 0 00319.5 356.5a72.666 72.666 0 000 55.925 78.316 78.316 0 0015.165 23.463 73.468 73.468 0 0022.384 16.231 65.69 65.69 0 0055.073 0 73.469 73.469 0 0022.384-16.231 78.369 78.369 0 0015.168-23.463 72.645 72.645 0 000-55.925 76.015 76.015 0 00-15.168-23.463 74.819 74.819 0 00-22.384-16.084 63.709 63.709 0 00-27.532-6.053z" transform="translate(-272.59 -272.238)" fill="url(#a)"/></g></g><g data-name="Group 980"><g data-name="Group 979" fill="#054b54"><path data-name="Path 656" d="M78.73 123.75a11.387 11.387 0 01-4.59-.937 11.973 11.973 0 01-6.307-6.307 11.828 11.828 0 010-9.227 11.934 11.934 0 016.307-6.323 11.789 11.789 0 019.211 0 11.94 11.94 0 016.308 6.323 11.832 11.832 0 010 9.227 11.978 11.978 0 01-6.308 6.307 11.466 11.466 0 01-4.621.937zm.016-19.641a6.743 6.743 0 00-2.914.64 7.921 7.921 0 00-2.368 1.7 8.034 8.034 0 00-1.6 2.482 7.692 7.692 0 000 5.917 8.288 8.288 0 001.6 2.483 7.775 7.775 0 002.368 1.717 6.947 6.947 0 005.827 0 7.776 7.776 0 002.369-1.717 8.29 8.29 0 001.6-2.483 7.688 7.688 0 000-5.917 8.036 8.036 0 00-1.6-2.482 7.923 7.923 0 00-2.369-1.7 6.738 6.738 0 00-2.91-.64z"/><path data-name="Path 657" d="M123.007 100.487l-10.866 22.825h-.25l-10.837-22.825h4.808l6.151 13.239 6.151-13.239z"/><path data-name="Path 658" d="M145.209 123.75a11.389 11.389 0 01-4.59-.937 11.981 11.981 0 01-6.307-6.307 11.829 11.829 0 010-9.227 11.942 11.942 0 016.307-6.323 11.789 11.789 0 019.211 0 11.936 11.936 0 016.307 6.323 11.826 11.826 0 010 9.227 11.974 11.974 0 01-6.307 6.307 11.467 11.467 0 01-4.621.937zm.015-19.641a6.745 6.745 0 00-2.914.64 7.916 7.916 0 00-2.368 1.7 8.027 8.027 0 00-1.6 2.482 7.692 7.692 0 000 5.917 8.281 8.281 0 001.6 2.483 7.77 7.77 0 002.368 1.717 6.948 6.948 0 005.827 0 7.775 7.775 0 002.368-1.717 8.287 8.287 0 001.6-2.483 7.687 7.687 0 000-5.917 8.033 8.033 0 00-1.6-2.482 7.921 7.921 0 00-2.368-1.7 6.74 6.74 0 00-2.914-.64z"/><path data-name="Path 659" d="M87.337 134.297v.726h-3.085v-4.286h.82v3.56z"/><path data-name="Path 660" d="M90.756 135.022h-.819v-4.28h.819z"/><path data-name="Path 661" d="M94.597 131.463v1.059h2.067v.756h-2.067v1.745h-.819v-4.286h3.15v.726z"/><path data-name="Path 662" d="M100.381 131.463v1.071h2.072v.743h-2.072v1.007h2.341v.738h-3.16v-4.286h3.16v.726z"/><path data-name="Path 663" d="M113.42 133.969a2.067 2.067 0 01-.346.465 2.312 2.312 0 01-.454.357 2.219 2.219 0 01-1.138.313 2.136 2.136 0 01-.861-.176 2.248 2.248 0 01-1.183-1.182 2.2 2.2 0 010-1.722 2.245 2.245 0 011.183-1.182 2.13 2.13 0 01.861-.176 2.209 2.209 0 011.138.313 2.27 2.27 0 01.454.357 2.129 2.129 0 01.346.46l-.767.31a1.684 1.684 0 00-.22-.264 1.586 1.586 0 00-.278-.216 1.42 1.42 0 00-.322-.146 1.175 1.175 0 00-.351-.053 1.272 1.272 0 00-.548.12 1.461 1.461 0 00-.442.319 1.538 1.538 0 00-.3.465 1.441 1.441 0 000 1.11 1.542 1.542 0 00.3.462 1.439 1.439 0 00.442.319 1.261 1.261 0 00.548.12 1.177 1.177 0 00.351-.052 1.411 1.411 0 00.322-.146 1.508 1.508 0 00.278-.22 1.778 1.778 0 00.22-.266z"/><path data-name="Path 664" d="M119.104 134.297v.726h-3.085v-4.286h.819v3.56z"/><path data-name="Path 665" d="M122.523 135.022h-.819v-4.28h.819z"/><path data-name="Path 666" d="M129.181 135.022l-2.817-2.547v2.547h-.816v-4.28h.088l2.816 2.588v-2.588h.82v4.28z"/><path data-name="Path 667" d="M133.11 135.022h-.82v-4.28h.82z"/><path data-name="Path 668" d="M140.052 133.969a2.069 2.069 0 01-.346.465 2.3 2.3 0 01-.454.357 2.218 2.218 0 01-1.139.313 2.136 2.136 0 01-.86-.176 2.246 2.246 0 01-1.183-1.182 2.2 2.2 0 010-1.722 2.243 2.243 0 011.183-1.182 2.129 2.129 0 01.86-.176 2.208 2.208 0 011.139.313 2.256 2.256 0 01.454.357 2.131 2.131 0 01.346.46l-.768.31a1.661 1.661 0 00-.219-.264 1.6 1.6 0 00-.278-.216 1.418 1.418 0 00-.322-.146 1.177 1.177 0 00-.351-.053 1.271 1.271 0 00-.547.12 1.465 1.465 0 00-.442.319 1.537 1.537 0 00-.3.465 1.438 1.438 0 000 1.11 1.542 1.542 0 00.3.462 1.444 1.444 0 00.442.319 1.26 1.26 0 00.547.12 1.178 1.178 0 00.351-.052 1.41 1.41 0 00.322-.146 1.518 1.518 0 00.278-.22 1.753 1.753 0 00.219-.266z"/></g></g></g></svg>