<svg xmlns="http://www.w3.org/2000/svg" width="135.821" height="136"><g data-name="Group 1131"><g data-name="Group 978"><g data-name="Group 977"><path data-name="Path 655" d="M67.822 136a65.264 65.264 0 01-26.306-5.368A68.66 68.66 0 015.37 94.485a67.783 67.783 0 010-52.879A68.423 68.423 0 0141.516 5.369a67.572 67.572 0 0152.79 0 68.424 68.424 0 0136.146 36.237 67.783 67.783 0 010 52.879 68.661 68.661 0 01-36.142 36.147A65.708 65.708 0 0167.822 136zm.089-112.558a38.632 38.632 0 00-16.7 3.668 45.365 45.365 0 00-13.572 9.752 46.061 46.061 0 00-9.2 14.227 44.06 44.06 0 000 33.91 47.486 47.486 0 009.2 14.227 44.546 44.546 0 0013.572 9.842 39.831 39.831 0 0033.393 0 44.547 44.547 0 0013.572-9.842 47.518 47.518 0 009.2-14.227 44.048 44.048 0 000-33.91 46.092 46.092 0 00-9.2-14.227 45.366 45.366 0 00-13.572-9.752 38.629 38.629 0 00-16.694-3.667z" fill="#adc9b8"/></g></g><g data-name="Group 980"><g data-name="Group 979" fill="#054b54"><path data-name="Path 656" d="M46.255 75.266a7.411 7.411 0 01-2.988-.61 7.793 7.793 0 01-4.106-4.106 7.7 7.7 0 010-6.006 7.768 7.768 0 014.106-4.116 7.674 7.674 0 016 0 7.772 7.772 0 014.106 4.116 7.7 7.7 0 010 6.006 7.8 7.8 0 01-4.106 4.106 7.463 7.463 0 01-3.012.61zm.01-12.785a4.389 4.389 0 00-1.9.417 5.155 5.155 0 00-1.542 1.108 5.229 5.229 0 00-1.044 1.616 5.008 5.008 0 000 3.852 5.4 5.4 0 001.044 1.616 5.06 5.06 0 001.542 1.118 4.522 4.522 0 003.793 0A5.061 5.061 0 0049.7 71.09a5.4 5.4 0 001.044-1.616 5 5 0 000-3.852 5.23 5.23 0 00-1.044-1.616 5.156 5.156 0 00-1.542-1.108 4.386 4.386 0 00-1.893-.417z"/><path data-name="Path 657" d="M75.076 60.124l-7.073 14.858h-.163l-7.054-14.858h3.13l4 8.618 4-8.618z"/><path data-name="Path 658" d="M89.527 75.266a7.413 7.413 0 01-2.988-.61 7.8 7.8 0 01-4.106-4.106 7.7 7.7 0 010-6.006 7.774 7.774 0 014.106-4.116 7.674 7.674 0 016 0 7.77 7.77 0 014.106 4.116 7.7 7.7 0 010 6.006 7.794 7.794 0 01-4.106 4.106 7.463 7.463 0 01-3.012.61zm.01-12.785a4.391 4.391 0 00-1.9.417 5.152 5.152 0 00-1.541 1.108 5.225 5.225 0 00-1.044 1.616 5.008 5.008 0 000 3.852 5.391 5.391 0 001.044 1.616 5.057 5.057 0 001.541 1.118 4.523 4.523 0 003.793 0 5.061 5.061 0 001.542-1.118 5.4 5.4 0 001.045-1.616 5 5 0 000-3.852 5.229 5.229 0 00-1.045-1.616 5.157 5.157 0 00-1.542-1.108 4.387 4.387 0 00-1.893-.417z"/><path data-name="Path 659" d="M51.858 82.131v.473H49.85v-2.79h.534v2.317z"/><path data-name="Path 660" d="M54.083 82.604h-.533v-2.786h.533z"/><path data-name="Path 661" d="M56.583 80.287v.69h1.345v.491h-1.345v1.136h-.533v-2.79h2.05v.473z"/><path data-name="Path 662" d="M60.348 80.287v.7h1.349v.481h-1.349v.655h1.521v.48h-2.054v-2.79h2.054v.473z"/><path data-name="Path 663" d="M68.836 81.917a1.346 1.346 0 01-.225.3 1.5 1.5 0 01-.3.233 1.444 1.444 0 01-.741.2 1.39 1.39 0 01-.56-.114 1.463 1.463 0 01-.77-.77 1.432 1.432 0 010-1.121 1.461 1.461 0 01.77-.769 1.387 1.387 0 01.56-.114 1.437 1.437 0 01.741.2 1.475 1.475 0 01.3.232 1.386 1.386 0 01.225.3l-.5.2a1.1 1.1 0 00-.143-.172 1.032 1.032 0 00-.181-.141.927.927 0 00-.21-.1.766.766 0 00-.229-.034.828.828 0 00-.357.078.951.951 0 00-.288.208 1 1 0 00-.194.3.938.938 0 000 .722 1 1 0 00.194.3.936.936 0 00.288.208.82.82 0 00.357.078.766.766 0 00.229-.034.916.916 0 00.21-.1.978.978 0 00.181-.143 1.155 1.155 0 00.143-.173z"/><path data-name="Path 664" d="M72.536 82.131v.473h-2.008v-2.79h.533v2.317z"/><path data-name="Path 665" d="M74.761 82.604h-.533v-2.786h.533z"/><path data-name="Path 666" d="M79.095 82.604l-1.833-1.658v1.658h-.531v-2.786h.057l1.833 1.684v-1.684h.534v2.786z"/><path data-name="Path 667" d="M81.651 82.604h-.533v-2.786h.533z"/><path data-name="Path 668" d="M86.172 81.917a1.346 1.346 0 01-.225.3 1.492 1.492 0 01-.3.233 1.443 1.443 0 01-.741.2 1.39 1.39 0 01-.56-.114 1.462 1.462 0 01-.77-.77 1.43 1.43 0 010-1.121 1.46 1.46 0 01.77-.769 1.387 1.387 0 01.56-.114 1.437 1.437 0 01.741.2 1.467 1.467 0 01.3.232 1.386 1.386 0 01.225.3l-.5.2a1.082 1.082 0 00-.143-.172 1.043 1.043 0 00-.181-.141.926.926 0 00-.21-.1.767.767 0 00-.229-.034.827.827 0 00-.356.078.955.955 0 00-.288.208 1 1 0 00-.194.3.936.936 0 000 .722 1 1 0 00.194.3.939.939 0 00.288.208.819.819 0 00.356.078.767.767 0 00.229-.034.915.915 0 00.21-.1.988.988 0 00.181-.143 1.14 1.14 0 00.143-.173z"/></g></g></g></svg>