<svg width="50" height="50" fill="none" xmlns="http://www.w3.org/2000/svg"><path d="M25 .012C14.514.012 5.962 8.565 5.962 19.051c0 4.159 1.318 8.113 3.808 11.423l14.059 18.94c.204.293.761.586 1.171.586.44 0 .967-.322 1.172-.586.058-.087 14.205-19.145 14.323-19.321.03 0 .03 0 .03-.03a18.95 18.95 0 003.514-11.012C44.039 8.565 35.486.012 25 .012zm0 29.29c-5.652 0-10.251-4.598-10.251-10.251S19.348 8.799 25 8.799c5.653 0 10.252 4.599 10.252 10.252 0 5.653-4.599 10.251-10.252 10.251z" fill="#004c45"/><path d="M25 0v8.787c5.653 0 10.252 4.598 10.252 10.251S30.651 29.29 25 29.29v20.698c.44 0 .967-.322 1.172-.586.058-.088 14.205-19.146 14.322-19.321.03 0 .03 0 .03-.03a18.95 18.95 0 003.514-11.012C44.038 8.552 35.486 0 25 0z" fill="#004c45"/></svg>