<svg xmlns="http://www.w3.org/2000/svg" width="135.821" height="136"><g data-name="Group 1206"><path data-name="Path 791" d="M67.822 136a65.264 65.264 0 01-26.306-5.368A68.66 68.66 0 015.37 94.485a67.783 67.783 0 010-52.879A68.423 68.423 0 0141.516 5.369a67.572 67.572 0 0152.79 0 68.424 68.424 0 0136.146 36.237 67.783 67.783 0 010 52.879 68.661 68.661 0 01-36.142 36.147A65.708 65.708 0 0167.822 136zm.089-112.558a38.632 38.632 0 00-16.7 3.668 45.365 45.365 0 00-13.572 9.752 46.061 46.061 0 00-9.2 14.227 44.06 44.06 0 000 33.91 47.486 47.486 0 009.2 14.227 44.546 44.546 0 0013.572 9.842 39.831 39.831 0 0033.393 0 44.547 44.547 0 0013.572-9.842 47.518 47.518 0 009.2-14.227 44.048 44.048 0 000-33.91 46.092 46.092 0 00-9.2-14.227 45.366 45.366 0 00-13.572-9.752 38.629 38.629 0 00-16.694-3.667z" fill="#fff"/><g data-name="Polygon 1" fill="none"><path d="M92 68.5L54 91V46z"/><path d="M78.26 68.5L61 58.28v20.44L78.26 68.5m13.74 0L54 91V46l38 22.5z" fill="#fff"/></g></g></svg>