<?xml version="1.0" encoding="utf-8"?><svg xmlns="http://www.w3.org/2000/svg" xmlns:xlink="http://www.w3.org/1999/xlink"><symbol viewBox="0 0 6.478 4" id="arr-down" xmlns="http://www.w3.org/2000/svg"><path data-name="Icon material-keyboard-arrow-down" d="M.761 0l2.478 2.472L5.717 0l.761.761L3.239 4 0 .761z"/></symbol><symbol viewBox="0 0 16 25.911" id="back" xmlns="http://www.w3.org/2000/svg"><path data-name="Icon material-keyboard-arrow-down" d="M16 3.045l-9.889 9.911L16 22.867l-3.04 3.044L0 12.955 12.96 0z"/></symbol><symbol viewBox="0 0 96 96.126" id="calcs-01" xmlns="http://www.w3.org/2000/svg"><path data-name="Path 910" d="M47.937 96.126a46.13 46.13 0 01-18.593-3.794A48.53 48.53 0 013.795 66.783a47.91 47.91 0 010-37.376A48.362 48.362 0 0129.344 3.794a47.76 47.76 0 0137.313 0A48.363 48.363 0 0192.21 29.407a47.909 47.909 0 010 37.376 48.53 48.53 0 01-25.549 25.549 46.443 46.443 0 01-18.724 3.794zM48 16.569a27.305 27.305 0 00-11.8 2.593 32.065 32.065 0 00-9.593 6.893 32.557 32.557 0 00-6.5 10.056 31.142 31.142 0 000 23.968 33.564 33.564 0 006.5 10.056 31.485 31.485 0 009.593 6.956 28.154 28.154 0 0023.6 0 31.487 31.487 0 009.593-6.956 33.586 33.586 0 006.5-10.056 31.133 31.133 0 000-23.968 32.578 32.578 0 00-6.5-10.056 32.067 32.067 0 00-9.593-6.893A27.3 27.3 0 0048 16.569z"/></symbol><symbol viewBox="0 0 96 96" id="calcs-02" xmlns="http://www.w3.org/2000/svg"><g data-name="Icon feather-clock" fill="none" stroke-linecap="round" stroke-linejoin="round" stroke-width="10"><path data-name="Path 916" d="M91 48A43 43 0 1148 5a43 43 0 0143 43z"/><path data-name="Path 917" d="M48.009 25.218v25.779l17.186 8.593"/></g></symbol><symbol viewBox="0 0 87.4 96" id="calcs-03" xmlns="http://www.w3.org/2000/svg"><g data-name="Icon feather-calendar" fill="none" stroke-linecap="round" stroke-linejoin="round" stroke-width="10"><path data-name="Path 918" d="M13.6 13.646h60.2a8.6 8.6 0 018.6 8.595v60.164A8.6 8.6 0 0173.8 91H13.6A8.6 8.6 0 015 82.405V22.241a8.6 8.6 0 018.6-8.595z"/><path data-name="Path 919" d="M60.9 5v17.293"/><path data-name="Path 920" d="M26.5 5v17.293"/><path data-name="Path 921" d="M5 39.4h77.4"/></g></symbol><symbol viewBox="0 0 16 16" id="clock" xmlns="http://www.w3.org/2000/svg"><path data-name="Icon material-access-time" d="M7.992 0A8 8 0 1016 8a8 8 0 00-8.008-8zM8 14.4A6.4 6.4 0 1114.4 8 6.4 6.4 0 018 14.4zM8.4 4H7.2v4.8l4.2 2.52.6-.984L8.4 8.2z"/></symbol><symbol viewBox="0 0 24 24" id="close" xmlns="http://www.w3.org/2000/svg"><g data-name="Group 995" transform="translate(-320.454 -30.954)"><rect data-name="Rectangle 1613" width="30.856" height="3.086" rx="1.543" transform="rotate(45 123.953 404.933)"/><rect data-name="Rectangle 1614" width="30.855" height="3.086" rx="1.543" transform="rotate(-45 223.928 -360.436)"/></g></symbol><symbol viewBox="0 0 129.246 113.592" id="experience" xmlns="http://www.w3.org/2000/svg"><g data-name="Group 1161" fill="none" stroke-miterlimit="10" stroke-width="4"><path data-name="Rectangle 1696" d="M95.935 2h31.312v109.592H95.935z"/><path data-name="Rectangle 1697" d="M48.968 33.312H80.28v78.28H48.968z"/><path data-name="Rectangle 1698" d="M2.001 64.624h31.312v46.968H2.001z"/></g></symbol><symbol viewBox="0 0 16.097 16" id="fb" xmlns="http://www.w3.org/2000/svg"><path data-name="Icon awesome-facebook" d="M16.097 8.048a8.049 8.049 0 10-9.306 7.951v-5.624H4.746V8.048h2.045V6.275a2.84 2.84 0 013.04-3.131 12.387 12.387 0 011.8.157v1.98h-1.014a1.163 1.163 0 00-1.311 1.256v1.511h2.231l-.357 2.327H9.306V16a8.052 8.052 0 006.791-7.952z" opacity=".9"/></symbol><symbol viewBox="0 0 16 16" id="inst" xmlns="http://www.w3.org/2000/svg"><path data-name="Icon simple-instagram" d="M8 0C5.827 0 5.555.01 4.7.048A5.9 5.9 0 002.76.42a3.918 3.918 0 00-1.417.923A3.9 3.9 0 00.42 2.76 5.882 5.882 0 00.048 4.7C.008 5.555 0 5.827 0 8s.01 2.445.048 3.3a5.9 5.9 0 00.372 1.94 3.923 3.923 0 00.923 1.417 3.912 3.912 0 001.417.923 5.906 5.906 0 001.942.372c.853.04 1.125.048 3.3.048s2.445-.01 3.3-.048a5.92 5.92 0 001.942-.372 4.088 4.088 0 002.34-2.34 5.9 5.9 0 00.372-1.942c.04-.853.048-1.125.048-3.3s-.01-2.445-.048-3.3a5.916 5.916 0 00-.376-1.938 3.926 3.926 0 00-.923-1.417A3.9 3.9 0 0013.24.42 5.885 5.885 0 0011.3.048C10.445.008 10.173 0 8 0zm0 1.44c2.135 0 2.39.011 3.233.047a4.408 4.408 0 011.485.277 2.633 2.633 0 011.519 1.518 4.417 4.417 0 01.275 1.485c.038.844.047 1.1.047 3.233s-.01 2.39-.049 3.233a4.5 4.5 0 01-.281 1.485 2.54 2.54 0 01-.6.921 2.5 2.5 0 01-.92.6 4.449 4.449 0 01-1.49.275c-.849.038-1.1.047-3.239.047s-2.391-.01-3.239-.049a4.536 4.536 0 01-1.491-.281 2.477 2.477 0 01-.919-.6 2.429 2.429 0 01-.6-.92 4.54 4.54 0 01-.28-1.49c-.03-.84-.041-1.1-.041-3.229s.011-2.391.041-3.241a4.535 4.535 0 01.28-1.489 2.371 2.371 0 01.6-.921 2.366 2.366 0 01.919-.6 4.428 4.428 0 011.481-.281c.85-.03 1.1-.04 3.239-.04l.03.02zm0 2.452A4.108 4.108 0 1012.108 8 4.108 4.108 0 008 3.892zm0 6.775A2.667 2.667 0 1110.667 8 2.666 2.666 0 018 10.667zm5.231-6.937a.96.96 0 11-.96-.959.961.961 0 01.96.959z"/></symbol><symbol viewBox="0 0 123.371 48" id="logo-header" xmlns="http://www.w3.org/2000/svg"><g data-name="Group 983"><g data-name="Group 982"><path data-name="Path 669" d="M14.446 28.968a13.9 13.9 0 01-5.6-1.144 14.619 14.619 0 01-7.7-7.7 14.438 14.438 0 010-11.263 14.572 14.572 0 017.7-7.718 13.9 13.9 0 015.6-1.144 14 14 0 015.641 1.144 14.576 14.576 0 017.7 7.718 14.444 14.444 0 010 11.263 14.622 14.622 0 01-7.7 7.7 14 14 0 01-5.641 1.144zm.019-23.976a8.226 8.226 0 00-3.556.782 9.663 9.663 0 00-2.891 2.077 9.812 9.812 0 00-1.959 3.03 9.39 9.39 0 000 7.223 10.119 10.119 0 001.959 3.031 9.482 9.482 0 002.891 2.1 8.481 8.481 0 007.113 0 9.482 9.482 0 002.891-2.1 10.128 10.128 0 001.959-3.031 9.384 9.384 0 000-7.223 9.82 9.82 0 00-1.959-3.03 9.663 9.663 0 00-2.891-2.077 8.226 8.226 0 00-3.557-.781z"/><path data-name="Path 670" d="M75.15.572L61.885 28.435h-.305L48.354.572h5.87l7.509 16.161L69.242.572z"/><path data-name="Path 671" d="M108.888 28.968a13.9 13.9 0 01-5.6-1.144 14.619 14.619 0 01-7.7-7.7 14.438 14.438 0 010-11.263 14.573 14.573 0 017.7-7.718 14.391 14.391 0 0111.244 0 14.573 14.573 0 017.7 7.718 14.444 14.444 0 010 11.263 14.619 14.619 0 01-7.7 7.7 14 14 0 01-5.644 1.144zm.019-23.976a8.233 8.233 0 00-3.557.782 9.667 9.667 0 00-2.89 2.077 9.8 9.8 0 00-1.959 3.03 9.39 9.39 0 000 7.223 10.108 10.108 0 001.959 3.031 9.486 9.486 0 002.89 2.1 8.482 8.482 0 007.113 0 9.489 9.489 0 002.891-2.1 10.12 10.12 0 001.959-3.031 9.384 9.384 0 000-7.223 9.812 9.812 0 00-1.959-3.03 9.669 9.669 0 00-2.891-2.077 8.227 8.227 0 00-3.556-.781z"/><path data-name="Path 672" d="M27.602 47.013v.886h-3.766v-5.231h1v4.345z"/><path data-name="Path 673" d="M32.554 47.899h-1v-5.224h1z"/><path data-name="Path 674" d="M37.919 43.554v1.295h2.523v.923h-2.523v2.13h-1v-5.234h3.846v.886z"/><path data-name="Path 675" d="M45.866 43.554v1.308h2.529v.908h-2.529v1.229h2.851v.9h-3.852v-5.231h3.852v.886z"/><path data-name="Path 676" d="M63.337 46.614a2.522 2.522 0 01-.422.568 2.811 2.811 0 01-.554.436 2.71 2.71 0 01-1.39.382 2.605 2.605 0 01-1.05-.215 2.74 2.74 0 01-1.444-1.444 2.681 2.681 0 010-2.1 2.736 2.736 0 011.444-1.443 2.6 2.6 0 011.05-.214 2.7 2.7 0 011.39.382 2.771 2.771 0 01.554.436 2.591 2.591 0 01.422.561l-.936.379a2.054 2.054 0 00-.268-.322 1.969 1.969 0 00-.34-.264 1.729 1.729 0 00-.393-.179 1.435 1.435 0 00-.429-.064 1.552 1.552 0 00-.668.146 1.792 1.792 0 00-.54.39 1.873 1.873 0 00-.364.568 1.758 1.758 0 000 1.355 1.878 1.878 0 00.364.564 1.766 1.766 0 00.54.39 1.537 1.537 0 00.668.146 1.435 1.435 0 00.429-.064 1.729 1.729 0 00.393-.179 1.872 1.872 0 00.34-.268 2.149 2.149 0 00.268-.325z"/><path data-name="Path 677" d="M71.224 47.013v.886h-3.766v-5.231h1v4.345z"/><path data-name="Path 678" d="M76.058 47.899h-1v-5.224h1z"/><path data-name="Path 679" d="M85.048 47.899L81.61 44.79v3.109h-1v-5.224h.107l3.438 3.159v-3.159h1v5.224z"/><path data-name="Path 680" d="M90.553 47.899h-1v-5.224h1z"/><path data-name="Path 681" d="M99.965 46.614a2.539 2.539 0 01-.422.568 2.8 2.8 0 01-.554.436 2.71 2.71 0 01-1.39.382 2.609 2.609 0 01-1.05-.215 2.744 2.744 0 01-1.444-1.444 2.681 2.681 0 010-2.1 2.741 2.741 0 011.444-1.443 2.6 2.6 0 011.05-.214 2.7 2.7 0 011.39.382 2.757 2.757 0 01.554.436 2.61 2.61 0 01.422.561l-.937.379a2.026 2.026 0 00-.268-.322 1.945 1.945 0 00-.339-.264 1.723 1.723 0 00-.393-.179 1.435 1.435 0 00-.429-.064 1.554 1.554 0 00-.668.146 1.79 1.79 0 00-.54.39 1.874 1.874 0 00-.365.568 1.759 1.759 0 000 1.355 1.88 1.88 0 00.365.564 1.764 1.764 0 00.54.39 1.539 1.539 0 00.668.146 1.435 1.435 0 00.429-.064 1.723 1.723 0 00.393-.179 1.851 1.851 0 00.339-.268 2.118 2.118 0 00.268-.325z"/></g></g></symbol><symbol viewBox="0 0 24 19.2" id="mail" xmlns="http://www.w3.org/2000/svg"><path data-name="Icon material-mail-outline" d="M21.6 0H2.4A2.4 2.4 0 00.012 2.4L0 16.8a2.407 2.407 0 002.4 2.4h19.2a2.407 2.407 0 002.4-2.4V2.4A2.407 2.407 0 0021.6 0zm0 16.8H2.4v-12l9.6 6 9.6-6zM12 8.4l-9.6-6h19.2z"/></symbol><symbol viewBox="0 0 11.2 16" id="marker" xmlns="http://www.w3.org/2000/svg"><path data-name="Icon material-location-on" d="M5.6 0A5.6 5.6 0 000 5.6C0 9.8 5.6 16 5.6 16s5.6-6.2 5.6-10.4A5.6 5.6 0 005.6 0zm0 7.6a2 2 0 112-2 2 2 0 01-2 2z"/></symbol><symbol viewBox="0 0 16 16" id="search" xmlns="http://www.w3.org/2000/svg"><path data-name="Icon metro-search" d="M15.504 13.616l-3.79-3.223a1.691 1.691 0 00-1.149-.5 6 6 0 10-.672.672 1.691 1.691 0 00.5 1.149l3.223 3.79a1.344 1.344 0 101.889-1.889zM6.004 10a4 4 0 114-4A4 4 0 016 10z"/></symbol><symbol viewBox="0 0 129.247 199.593" id="services" xmlns="http://www.w3.org/2000/svg"><g data-name="Group 1159" fill="none" stroke-linecap="round" stroke-width="4"><path data-name="Path 756" d="M21.774 197.254S2 193.954 2 157.702c0-23.073 19.617-39.918 23.07-56.032 9.889-46.141-6.592-98.876-6.592-98.876"/><path data-name="Path 758" d="M61.325 174.181s65.921 0 65.921-56.03c0-39.552-28.965-64.992-28.965-64.992"/><path data-name="Path 774" d="M71.025 197.237l4.66-23.055"/><path data-name="Path 759" d="M74.51 2.794l36.255 26.366s0 13.185-6.592 19.777c-9.889 9.888-26.367 3.3-26.367 3.3"/></g></symbol><symbol viewBox="0 0 10.182 16" id="smart" xmlns="http://www.w3.org/2000/svg"><path data-name="Icon material-smartphone" d="M8.727.007L1.455 0A1.459 1.459 0 000 1.455v13.09A1.459 1.459 0 001.455 16h7.273a1.459 1.459 0 001.455-1.455V1.455A1.453 1.453 0 008.727.007zm0 13.084H1.455V2.909h7.273z"/></symbol><symbol viewBox="0 0 177.833 132.614" id="specialty" xmlns="http://www.w3.org/2000/svg"><g data-name="Group 1198"><g data-name="Group 1196"><g data-name="Group 1192" transform="translate(2.48 4.887)" fill="none" stroke-width="4"><circle data-name="Ellipse 415" cx="62.623" cy="62.623" r="62.623"/><path data-name="Path 779" d="M77.97 15.387c15.181 4.933 8.841 17.72 13.947 31.886 3.528 9.785 21.482 19.79 17.939 30.695a49.664 49.664 0 11-31.887-62.58z"/></g></g><g data-name="Path 787"><path d="M76.538 61.974L175.712-.009l1.908 3.053s-73.901 47.25-99.171 61.982-1.91-3.052-1.91-3.052z"/><path d="M76.538 61.975L175.71-.007l1.908 3.053s-32.846 21-62.229 39.364c-14.694 9.184-28.518 17.706-36.942 22.617-25.27 14.733-1.908-3.052-1.908-3.052z"/></g></g></symbol><symbol viewBox="0 0 257.022 100" id="underheader" xmlns="http://www.w3.org/2000/svg"><g data-name="Group 983"><g data-name="Group 982"><path data-name="Path 669" d="M33.599 67.369a32.33 32.33 0 01-13.03-2.66A34 34 0 012.66 46.803a33.577 33.577 0 010-26.194 33.89 33.89 0 0117.906-17.95A32.33 32.33 0 0133.599 0a32.549 32.549 0 0113.12 2.66 33.9 33.9 0 0117.907 17.95 33.591 33.591 0 010 26.194 34.006 34.006 0 01-17.911 17.905 32.549 32.549 0 01-13.116 2.66zm.044-55.757a19.129 19.129 0 00-8.274 1.816 22.471 22.471 0 00-6.723 4.831 22.819 22.819 0 00-4.556 7.047 21.838 21.838 0 000 16.8 23.533 23.533 0 004.556 7.048 22.052 22.052 0 006.723 4.874 19.722 19.722 0 0016.541 0 22.052 22.052 0 006.723-4.874 23.553 23.553 0 004.555-7.048 21.824 21.824 0 000-16.8 22.837 22.837 0 00-4.555-7.047 22.471 22.471 0 00-6.723-4.831 19.129 19.129 0 00-8.27-1.817z"/><path data-name="Path 670" d="M159.803 1.33l-30.848 64.8h-.71L97.486 1.33h13.653l17.463 37.584L146.065 1.33z"/><path data-name="Path 671" d="M223.34 67.369a32.327 32.327 0 01-13.032-2.66 34 34 0 01-17.906-17.906 33.577 33.577 0 010-26.194 33.889 33.889 0 0117.906-17.95 33.468 33.468 0 0126.15 0 33.89 33.89 0 0117.906 17.95 33.591 33.591 0 010 26.194 34 34 0 01-17.906 17.906 32.552 32.552 0 01-13.118 2.66zm.044-55.757a19.147 19.147 0 00-8.273 1.818 22.481 22.481 0 00-6.722 4.831 22.794 22.794 0 00-4.555 7.047 21.838 21.838 0 000 16.8 23.507 23.507 0 004.555 7.048 22.061 22.061 0 006.722 4.872 19.725 19.725 0 0016.542 0 22.066 22.066 0 006.723-4.874 23.534 23.534 0 004.556-7.048 21.824 21.824 0 000-16.8 22.819 22.819 0 00-4.556-7.047 22.486 22.486 0 00-6.723-4.831 19.132 19.132 0 00-8.269-1.817z"/><path data-name="Path 672" d="M58.235 97.706v2.061h-8.759V87.601h2.326v10.105z"/><path data-name="Path 673" d="M68.001 99.766h-2.327V87.617h2.327z"/><path data-name="Path 674" d="M78.956 89.662v3.007h5.872v2.145h-5.872v4.953h-2.328V87.601h8.943v2.061z"/><path data-name="Path 675" d="M95.445 89.662v3.042h5.879v2.111h-5.879v2.858h6.631v2.094h-8.958V87.601h8.959v2.061z"/><path data-name="Path 676" d="M132.579 96.776a5.865 5.865 0 01-.981 1.32 6.538 6.538 0 01-1.288 1.014 6.3 6.3 0 01-3.232.889 6.059 6.059 0 01-2.443-.5 6.371 6.371 0 01-3.357-3.357 6.234 6.234 0 010-4.887 6.364 6.364 0 013.357-3.356 6.039 6.039 0 012.443-.5 6.271 6.271 0 013.232.889 6.444 6.444 0 011.288 1.013 6.026 6.026 0 01.981 1.3l-2.177.881a4.779 4.779 0 00-.623-.749 4.579 4.579 0 00-.791-.614 4.022 4.022 0 00-.913-.416 3.337 3.337 0 00-1-.15 3.609 3.609 0 00-1.554.34 4.166 4.166 0 00-1.256.906 4.355 4.355 0 00-.846 1.321 4.089 4.089 0 000 3.15 4.368 4.368 0 00.846 1.312 4.106 4.106 0 001.256.906 3.575 3.575 0 001.554.34 3.336 3.336 0 001-.149 4.022 4.022 0 00.913-.415 4.354 4.354 0 00.791-.624 5 5 0 00.623-.756z"/><path data-name="Path 677" d="M148.794 97.706v2.061h-8.759V87.601h2.326v10.105z"/><path data-name="Path 678" d="M158.547 99.766h-2.326V87.617h2.326z"/><path data-name="Path 679" d="M177.513 99.766l-8-7.23v7.23h-2.326V87.617h.249l7.994 7.346v-7.346h2.327v12.149z"/><path data-name="Path 680" d="M188.717 99.766h-2.326V87.617h2.326z"/><path data-name="Path 681" d="M208.503 96.776a5.906 5.906 0 01-.982 1.32 6.5 6.5 0 01-1.288 1.014 6.3 6.3 0 01-3.232.889 6.067 6.067 0 01-2.443-.5 6.382 6.382 0 01-3.357-3.357 6.234 6.234 0 010-4.887 6.374 6.374 0 013.357-3.356 6.047 6.047 0 012.443-.5 6.271 6.271 0 013.232.889 6.411 6.411 0 011.288 1.013 6.07 6.07 0 01.982 1.3l-2.179.881a4.713 4.713 0 00-.623-.749 4.524 4.524 0 00-.789-.614 4.007 4.007 0 00-.914-.416 3.337 3.337 0 00-1-.15 3.613 3.613 0 00-1.554.34 4.161 4.161 0 00-1.255.906 4.358 4.358 0 00-.848 1.321 4.089 4.089 0 000 3.15 4.371 4.371 0 00.848 1.312 4.1 4.1 0 001.255.906 3.579 3.579 0 001.554.34 3.336 3.336 0 001-.149 4.007 4.007 0 00.914-.415 4.305 4.305 0 00.789-.624 4.926 4.926 0 00.623-.756z"/></g></g></symbol><symbol viewBox="0 0 16 16" id="user" xmlns="http://www.w3.org/2000/svg"><path data-name="Icon material-person" d="M8 8a4 4 0 10-4-4 4 4 0 004 4zm0 2c-2.67 0-8 1.34-8 4v2h16v-2c0-2.66-5.33-4-8-4z"/></symbol></svg>