<svg xmlns="http://www.w3.org/2000/svg" width="96" height="96.126" viewBox="0 0 96 96.126">
  <path id="Path_910" data-name="Path 910" d="M320.527,368.364a46.13,46.13,0,0,1-18.593-3.794,48.53,48.53,0,0,1-25.549-25.549,47.91,47.91,0,0,1,0-37.376,48.362,48.362,0,0,1,25.549-25.613,47.76,47.76,0,0,1,37.313,0A48.363,48.363,0,0,1,364.8,301.645a47.909,47.909,0,0,1,0,37.376,48.53,48.53,0,0,1-25.549,25.549A46.443,46.443,0,0,1,320.527,368.364Zm.063-79.557a27.305,27.305,0,0,0-11.8,2.593,32.065,32.065,0,0,0-9.593,6.893,32.557,32.557,0,0,0-6.5,10.056,31.142,31.142,0,0,0,0,23.968,33.564,33.564,0,0,0,6.5,10.056,31.485,31.485,0,0,0,9.593,6.956,28.154,28.154,0,0,0,23.6,0,31.487,31.487,0,0,0,9.593-6.956,33.586,33.586,0,0,0,6.5-10.056,31.133,31.133,0,0,0,0-23.968,32.578,32.578,0,0,0-6.5-10.056,32.067,32.067,0,0,0-9.593-6.893A27.3,27.3,0,0,0,320.59,288.807Z" transform="translate(-272.59 -272.238)" fill="#adc9b8"/>
</svg>
