<svg xmlns="http://www.w3.org/2000/svg" width="123.371" height="48" viewBox="0 0 123.371 48">
  <g id="Group_983" data-name="Group 983" transform="translate(-3.201 -8.972)">
    <g id="Group_982" data-name="Group 982" transform="translate(3.201 8.972)">
      <path id="Path_669" data-name="Path 669" d="M17.647,37.94a13.9,13.9,0,0,1-5.6-1.144,14.619,14.619,0,0,1-7.7-7.7,14.438,14.438,0,0,1,0-11.263,14.572,14.572,0,0,1,7.7-7.718,13.9,13.9,0,0,1,5.6-1.144,14,14,0,0,1,5.641,1.144,14.576,14.576,0,0,1,7.7,7.718,14.444,14.444,0,0,1,0,11.263,14.622,14.622,0,0,1-7.7,7.7A14,14,0,0,1,17.647,37.94Zm.019-23.976a8.226,8.226,0,0,0-3.556.782,9.663,9.663,0,0,0-2.891,2.077,9.812,9.812,0,0,0-1.959,3.03,9.39,9.39,0,0,0,0,7.223,10.119,10.119,0,0,0,1.959,3.031,9.482,9.482,0,0,0,2.891,2.1,8.481,8.481,0,0,0,7.113,0,9.482,9.482,0,0,0,2.891-2.1,10.128,10.128,0,0,0,1.959-3.031,9.384,9.384,0,0,0,0-7.223,9.82,9.82,0,0,0-1.959-3.03,9.663,9.663,0,0,0-2.891-2.077A8.226,8.226,0,0,0,17.666,13.965Z" transform="translate(-3.201 -8.972)" fill="#054b54"/>
      <path id="Path_670" data-name="Path 670" d="M111.452,10.089,98.187,37.952h-.305L84.656,10.089h5.87L98.035,26.25l7.509-16.161Z" transform="translate(-36.302 -9.517)" fill="#054b54"/>
      <path id="Path_671" data-name="Path 671" d="M176.166,37.94a13.9,13.9,0,0,1-5.6-1.144,14.619,14.619,0,0,1-7.7-7.7,14.438,14.438,0,0,1,0-11.263,14.573,14.573,0,0,1,7.7-7.718,14.391,14.391,0,0,1,11.244,0,14.573,14.573,0,0,1,7.7,7.718,14.444,14.444,0,0,1,0,11.263,14.619,14.619,0,0,1-7.7,7.7A14,14,0,0,1,176.166,37.94Zm.019-23.976a8.233,8.233,0,0,0-3.557.782,9.667,9.667,0,0,0-2.89,2.077,9.8,9.8,0,0,0-1.959,3.03,9.39,9.39,0,0,0,0,7.223,10.108,10.108,0,0,0,1.959,3.031,9.486,9.486,0,0,0,2.89,2.1,8.482,8.482,0,0,0,7.113,0,9.489,9.489,0,0,0,2.891-2.1,10.12,10.12,0,0,0,1.959-3.031,9.384,9.384,0,0,0,0-7.223,9.812,9.812,0,0,0-1.959-3.03,9.669,9.669,0,0,0-2.891-2.077A8.227,8.227,0,0,0,176.185,13.965Z" transform="translate(-67.278 -8.972)" fill="#054b54"/>
      <path id="Path_672" data-name="Path 672" d="M48.354,86.564v.886H44.588V82.219h1v4.345Z" transform="translate(-20.752 -39.551)" fill="#054b54"/>
      <path id="Path_673" data-name="Path 673" d="M59.144,87.457h-1V82.233h1Z" transform="translate(-26.59 -39.558)" fill="#054b54"/>
      <path id="Path_674" data-name="Path 674" d="M68.3,83.105V84.4h2.523v.923H68.3v2.13h-1V82.219h3.846v.886Z" transform="translate(-30.381 -39.551)" fill="#054b54"/>
      <path id="Path_675" data-name="Path 675" d="M82.095,83.105v1.308h2.529v.908H82.095V86.55h2.851v.9H81.094V82.219h3.852v.886Z" transform="translate(-36.229 -39.551)" fill="#054b54"/>
      <path id="Path_676" data-name="Path 676" d="M109.3,86.083a2.522,2.522,0,0,1-.422.568,2.811,2.811,0,0,1-.554.436,2.71,2.71,0,0,1-1.39.382,2.605,2.605,0,0,1-1.05-.215,2.74,2.74,0,0,1-1.444-1.444,2.681,2.681,0,0,1,0-2.1,2.736,2.736,0,0,1,1.444-1.443,2.6,2.6,0,0,1,1.05-.214,2.7,2.7,0,0,1,1.39.382,2.771,2.771,0,0,1,.554.436,2.591,2.591,0,0,1,.422.561l-.936.379a2.054,2.054,0,0,0-.268-.322,1.969,1.969,0,0,0-.34-.264,1.729,1.729,0,0,0-.393-.179,1.435,1.435,0,0,0-.429-.064,1.552,1.552,0,0,0-.668.146,1.792,1.792,0,0,0-.54.39,1.873,1.873,0,0,0-.364.568,1.758,1.758,0,0,0,0,1.355,1.878,1.878,0,0,0,.364.564,1.766,1.766,0,0,0,.54.39,1.537,1.537,0,0,0,.668.146,1.435,1.435,0,0,0,.429-.064,1.729,1.729,0,0,0,.393-.179,1.872,1.872,0,0,0,.34-.268,2.149,2.149,0,0,0,.268-.325Z" transform="translate(-45.963 -39.469)" fill="#054b54"/>
      <path id="Path_677" data-name="Path 677" d="M124.1,86.564v.886h-3.766V82.219h1v4.345Z" transform="translate(-52.876 -39.551)" fill="#054b54"/>
      <path id="Path_678" data-name="Path 678" d="M134.894,87.457h-1V82.233h1Z" transform="translate(-58.836 -39.558)" fill="#054b54"/>
      <path id="Path_679" data-name="Path 679" d="M147.49,87.457l-3.438-3.109v3.109h-1V82.233h.107l3.438,3.159V82.233h1v5.224Z" transform="translate(-62.442 -39.558)" fill="#054b54"/>
      <path id="Path_680" data-name="Path 680" d="M160.134,87.457h-1V82.233h1Z" transform="translate(-69.581 -39.558)" fill="#054b54"/>
      <path id="Path_681" data-name="Path 681" d="M172.808,86.083a2.539,2.539,0,0,1-.422.568,2.8,2.8,0,0,1-.554.436,2.71,2.71,0,0,1-1.39.382,2.609,2.609,0,0,1-1.05-.215,2.744,2.744,0,0,1-1.444-1.444,2.681,2.681,0,0,1,0-2.1,2.741,2.741,0,0,1,1.444-1.443,2.6,2.6,0,0,1,1.05-.214,2.7,2.7,0,0,1,1.39.382,2.757,2.757,0,0,1,.554.436,2.61,2.61,0,0,1,.422.561l-.937.379a2.026,2.026,0,0,0-.268-.322,1.945,1.945,0,0,0-.339-.264,1.723,1.723,0,0,0-.393-.179,1.435,1.435,0,0,0-.429-.064,1.554,1.554,0,0,0-.668.146,1.79,1.79,0,0,0-.54.39,1.874,1.874,0,0,0-.365.568,1.759,1.759,0,0,0,0,1.355,1.88,1.88,0,0,0,.365.564,1.764,1.764,0,0,0,.54.39,1.539,1.539,0,0,0,.668.146,1.435,1.435,0,0,0,.429-.064,1.723,1.723,0,0,0,.393-.179,1.851,1.851,0,0,0,.339-.268,2.118,2.118,0,0,0,.268-.325Z" transform="translate(-72.843 -39.469)" fill="#054b54"/>
    </g>
  </g>
</svg>
