<svg xmlns="http://www.w3.org/2000/svg" width="129.247" height="199.593" viewBox="0 0 129.247 199.593">
  <g id="Group_1159" data-name="Group 1159" transform="translate(2 2.794)">
    <path id="Path_756" data-name="Path 756" d="M693.427,2341.648s-19.774-3.3-19.774-39.552c0-23.073,19.617-39.918,23.07-56.032,9.889-46.141-6.592-98.876-6.592-98.876" transform="translate(-673.653 -2147.188)" fill="none" stroke="#1d1d1b" stroke-linecap="round" stroke-miterlimit="10" stroke-width="4"/>
    <path id="Path_758" data-name="Path 758" d="M695.161,2287.275s65.921,0,65.921-56.03c0-39.552-28.965-64.992-28.965-64.992" transform="translate(-635.836 -2115.888)" fill="none" stroke="#1d1d1b" stroke-linecap="round" stroke-miterlimit="10" stroke-width="4"/>
    <path id="Path_774" data-name="Path 774" d="M0,20.287,4.66-2.768" transform="translate(69.025 174.156)" fill="none" stroke="#1d1d1b" stroke-linecap="round" stroke-width="4"/>
    <path id="Path_759" data-name="Path 759" d="M699.941,2147.188l36.255,26.366s0,13.185-6.592,19.777c-9.889,9.888-26.367,3.3-26.367,3.3" transform="translate(-627.431 -2147.188)" fill="none" stroke="#1d1d1b" stroke-linecap="round" stroke-miterlimit="10" stroke-width="4"/>
  </g>
</svg>
