<svg xmlns="http://www.w3.org/2000/svg" width="257.022" height="100" viewBox="0 0 257.022 100">
  <g id="Group_983" data-name="Group 983" transform="translate(-3.201 -8.972)">
    <g id="Group_982" data-name="Group 982" transform="translate(3.201 8.972)">
      <path id="Path_669" data-name="Path 669" d="M36.8,76.341a32.33,32.33,0,0,1-13.03-2.66A34,34,0,0,1,5.861,55.775a33.577,33.577,0,0,1,0-26.194,33.89,33.89,0,0,1,17.906-17.95A32.33,32.33,0,0,1,36.8,8.972a32.549,32.549,0,0,1,13.12,2.66,33.9,33.9,0,0,1,17.907,17.95,33.591,33.591,0,0,1,0,26.194A34.006,34.006,0,0,1,49.916,73.681,32.549,32.549,0,0,1,36.8,76.341Zm.044-55.757A19.129,19.129,0,0,0,28.57,22.4a22.471,22.471,0,0,0-6.723,4.831,22.819,22.819,0,0,0-4.556,7.047,21.838,21.838,0,0,0,0,16.8,23.533,23.533,0,0,0,4.556,7.048A22.052,22.052,0,0,0,28.57,63a19.722,19.722,0,0,0,16.541,0,22.052,22.052,0,0,0,6.723-4.874,23.553,23.553,0,0,0,4.555-7.048,21.824,21.824,0,0,0,0-16.8,22.837,22.837,0,0,0-4.555-7.047A22.471,22.471,0,0,0,45.111,22.4,19.129,19.129,0,0,0,36.841,20.583Z" transform="translate(-3.201 -8.972)" fill="#054b54"/>
      <path id="Path_670" data-name="Path 670" d="M146.972,10.089l-30.848,64.8h-.71l-30.759-64.8H98.308l17.463,37.584,17.463-37.584Z" transform="translate(12.831 -8.759)" fill="#054b54"/>
      <path id="Path_671" data-name="Path 671" d="M195.316,76.341a32.327,32.327,0,0,1-13.032-2.66,34,34,0,0,1-17.906-17.906,33.577,33.577,0,0,1,0-26.194,33.889,33.889,0,0,1,17.906-17.95,33.468,33.468,0,0,1,26.15,0,33.89,33.89,0,0,1,17.906,17.95,33.591,33.591,0,0,1,0,26.194,34,34,0,0,1-17.906,17.906A32.552,32.552,0,0,1,195.316,76.341Zm.044-55.757a19.147,19.147,0,0,0-8.273,1.818,22.481,22.481,0,0,0-6.722,4.831,22.794,22.794,0,0,0-4.555,7.047,21.838,21.838,0,0,0,0,16.8,23.507,23.507,0,0,0,4.555,7.048A22.061,22.061,0,0,0,187.087,63a19.725,19.725,0,0,0,16.542,0,22.066,22.066,0,0,0,6.723-4.874,23.534,23.534,0,0,0,4.556-7.048,21.824,21.824,0,0,0,0-16.8,22.819,22.819,0,0,0-4.556-7.047,22.486,22.486,0,0,0-6.723-4.831A19.132,19.132,0,0,0,195.36,20.583Z" transform="translate(28.024 -8.972)" fill="#054b54"/>
      <path id="Path_672" data-name="Path 672" d="M53.347,92.324v2.061H44.588V82.219h2.326V92.324Z" transform="translate(4.888 5.382)" fill="#054b54"/>
      <path id="Path_673" data-name="Path 673" d="M60.47,94.382H58.143V82.233H60.47Z" transform="translate(7.531 5.384)" fill="#054b54"/>
      <path id="Path_674" data-name="Path 674" d="M69.628,84.28v3.007H75.5v2.145H69.628v4.953H67.3V82.219h8.943V84.28Z" transform="translate(9.328 5.382)" fill="#054b54"/>
      <path id="Path_675" data-name="Path 675" d="M83.421,84.28v3.042H89.3v2.111H83.421v2.858h6.631v2.094H81.094V82.219h8.959V84.28Z" transform="translate(12.024 5.382)" fill="#054b54"/>
      <path id="Path_676" data-name="Path 676" d="M116.028,91.426a5.865,5.865,0,0,1-.981,1.32,6.538,6.538,0,0,1-1.288,1.014,6.3,6.3,0,0,1-3.232.889,6.059,6.059,0,0,1-2.443-.5,6.371,6.371,0,0,1-3.357-3.357,6.234,6.234,0,0,1,0-4.887,6.364,6.364,0,0,1,3.357-3.356,6.039,6.039,0,0,1,2.443-.5,6.271,6.271,0,0,1,3.232.889,6.444,6.444,0,0,1,1.288,1.013,6.026,6.026,0,0,1,.981,1.3l-2.177.881a4.779,4.779,0,0,0-.623-.749,4.579,4.579,0,0,0-.791-.614,4.022,4.022,0,0,0-.913-.416,3.337,3.337,0,0,0-1-.15,3.609,3.609,0,0,0-1.554.34,4.166,4.166,0,0,0-1.256.906,4.355,4.355,0,0,0-.846,1.321,4.089,4.089,0,0,0,0,3.15,4.368,4.368,0,0,0,.846,1.312,4.106,4.106,0,0,0,1.256.906,3.575,3.575,0,0,0,1.554.34,3.336,3.336,0,0,0,1-.149,4.022,4.022,0,0,0,.913-.415,4.354,4.354,0,0,0,.791-.624,5,5,0,0,0,.623-.756Z" transform="translate(16.551 5.35)" fill="#054b54"/>
      <path id="Path_677" data-name="Path 677" d="M129.1,92.324v2.061h-8.759V82.219h2.326V92.324Z" transform="translate(19.694 5.382)" fill="#054b54"/>
      <path id="Path_678" data-name="Path 678" d="M136.22,94.382h-2.326V82.233h2.326Z" transform="translate(22.327 5.384)" fill="#054b54"/>
      <path id="Path_679" data-name="Path 679" d="M153.374,94.382l-8-7.23v7.23h-2.326V82.233h.249l7.994,7.346V82.233h2.327V94.382Z" transform="translate(24.139 5.384)" fill="#054b54"/>
      <path id="Path_680" data-name="Path 680" d="M161.46,94.382h-2.326V82.233h2.326Z" transform="translate(27.257 5.384)" fill="#054b54"/>
      <path id="Path_681" data-name="Path 681" d="M179.535,91.426a5.906,5.906,0,0,1-.982,1.32,6.5,6.5,0,0,1-1.288,1.014,6.3,6.3,0,0,1-3.232.889,6.067,6.067,0,0,1-2.443-.5,6.382,6.382,0,0,1-3.357-3.357,6.234,6.234,0,0,1,0-4.887,6.374,6.374,0,0,1,3.357-3.356,6.047,6.047,0,0,1,2.443-.5,6.271,6.271,0,0,1,3.232.889,6.411,6.411,0,0,1,1.288,1.013,6.07,6.07,0,0,1,.982,1.3l-2.179.881a4.713,4.713,0,0,0-.623-.749,4.524,4.524,0,0,0-.789-.614,4.007,4.007,0,0,0-.914-.416,3.337,3.337,0,0,0-1-.15,3.613,3.613,0,0,0-1.554.34,4.161,4.161,0,0,0-1.255.906,4.358,4.358,0,0,0-.848,1.321,4.089,4.089,0,0,0,0,3.15,4.371,4.371,0,0,0,.848,1.312,4.1,4.1,0,0,0,1.255.906,3.579,3.579,0,0,0,1.554.34,3.336,3.336,0,0,0,1-.149,4.007,4.007,0,0,0,.914-.415,4.305,4.305,0,0,0,.789-.624,4.926,4.926,0,0,0,.623-.756Z" transform="translate(28.968 5.35)" fill="#054b54"/>
    </g>
  </g>
</svg>
