<svg xmlns="http://www.w3.org/2000/svg" xmlns:xlink="http://www.w3.org/1999/xlink" width="255.782" height="258.646" viewBox="0 0 255.782 258.646">
  <defs>
    <linearGradient id="linear-gradient" x1="0.5" x2="0.618" y2="0.941" gradientUnits="objectBoundingBox">
      <stop offset="0" stop-color="#004c45"/>
      <stop offset="1" stop-color="#adc9b8"/>
    </linearGradient>
  </defs>
  <path id="Subtraction_120" data-name="Subtraction 120" d="M5048.479,17633.91h-.006a133.689,133.689,0,0,1-61.507-14.869,122.227,122.227,0,0,1-26.284-18.367,116.958,116.958,0,0,1-20.884-25.463,120.046,120.046,0,0,1-11.6-25.738,144.518,144.518,0,0,1-5.928-28.379,165.122,165.122,0,0,1,4.32-58.553,151.942,151.942,0,0,1,7.912-22.947,130.9,130.9,0,0,1,11.335-20.664,108.38,108.38,0,0,1,14.632-17.479,90.811,90.811,0,0,1,17.8-13.387,94.426,94.426,0,0,1,24.8-9.693,116.942,116.942,0,0,1,27.276-3.107,148.045,148.045,0,0,1,37.925,5.139,170.119,170.119,0,0,1,36.66,14.5,161.822,161.822,0,0,1,32.147,22.5,131.414,131.414,0,0,1,24.384,29.131,107.651,107.651,0,0,1,14.885,43.684,119.4,119.4,0,0,1,.436,22.818,129.31,129.31,0,0,1-3.774,22.59,137.876,137.876,0,0,1-22.551,47.193,131.713,131.713,0,0,1-17.543,19.4,120.68,120.68,0,0,1-21.032,15.283A128.017,128.017,0,0,1,5048.479,17633.91Zm-1.851-243.455c-62.678,0-113.67,51.822-113.67,115.521s50.992,115.521,113.67,115.521,113.666-51.822,113.666-115.521S5109.3,17390.455,5046.628,17390.455Z" transform="translate(-4921.347 -17375.264)" fill="url(#linear-gradient)"/>
</svg>
