<svg xmlns="http://www.w3.org/2000/svg" width="135.821" height="136" viewBox="0 0 135.821 136">
  <g id="Group_1131" data-name="Group 1131" transform="translate(-272.59 -272.238)">
    <g id="Group_978" data-name="Group 978" transform="translate(272.59 272.238)">
      <g id="Group_977" data-name="Group 977" transform="translate(0 0)">
        <path id="Path_655" data-name="Path 655" d="M340.412,408.238a65.264,65.264,0,0,1-26.306-5.368,68.66,68.66,0,0,1-36.146-36.147,67.783,67.783,0,0,1,0-52.879,68.423,68.423,0,0,1,36.146-36.237,67.572,67.572,0,0,1,52.79,0,68.424,68.424,0,0,1,36.146,36.237,67.783,67.783,0,0,1,0,52.879A68.661,68.661,0,0,1,366.9,402.87,65.708,65.708,0,0,1,340.412,408.238Zm.089-112.558a38.632,38.632,0,0,0-16.7,3.668,45.365,45.365,0,0,0-13.572,9.752,46.061,46.061,0,0,0-9.2,14.227,44.06,44.06,0,0,0,0,33.91,47.486,47.486,0,0,0,9.2,14.227,44.546,44.546,0,0,0,13.572,9.842,39.831,39.831,0,0,0,33.393,0,44.547,44.547,0,0,0,13.572-9.842,47.518,47.518,0,0,0,9.2-14.227,44.048,44.048,0,0,0,0-33.91,46.092,46.092,0,0,0-9.2-14.227,45.366,45.366,0,0,0-13.572-9.752A38.629,38.629,0,0,0,340.5,295.681Z" transform="translate(-272.59 -272.238)" fill="#adc9b8"/>
      </g>
    </g>
    <g id="Group_980" data-name="Group 980" transform="translate(311.142 332.057)">
      <g id="Group_979" data-name="Group 979">
        <path id="Path_656" data-name="Path 656" d="M440.15,526.546a7.411,7.411,0,0,1-2.988-.61,7.793,7.793,0,0,1-4.106-4.106,7.7,7.7,0,0,1,0-6.006,7.768,7.768,0,0,1,4.106-4.116,7.674,7.674,0,0,1,6,0,7.772,7.772,0,0,1,4.106,4.116,7.7,7.7,0,0,1,0,6.006,7.8,7.8,0,0,1-4.106,4.106A7.463,7.463,0,0,1,440.15,526.546Zm.01-12.785a4.389,4.389,0,0,0-1.9.417,5.155,5.155,0,0,0-1.542,1.108,5.229,5.229,0,0,0-1.044,1.616,5.008,5.008,0,0,0,0,3.852,5.4,5.4,0,0,0,1.044,1.616,5.06,5.06,0,0,0,1.542,1.118,4.522,4.522,0,0,0,3.793,0,5.061,5.061,0,0,0,1.542-1.118,5.4,5.4,0,0,0,1.044-1.616,5,5,0,0,0,0-3.852,5.23,5.23,0,0,0-1.044-1.616,5.156,5.156,0,0,0-1.542-1.108A4.386,4.386,0,0,0,440.16,513.761Z" transform="translate(-432.447 -511.099)" fill="#054b54"/>
        <path id="Path_657" data-name="Path 657" d="M528.19,512.216l-7.073,14.858h-.163L513.9,512.216h3.13l4,8.618,4-8.618Z" transform="translate(-491.666 -511.911)" fill="#054b54"/>
        <path id="Path_658" data-name="Path 658" d="M598.667,526.546a7.413,7.413,0,0,1-2.988-.61,7.8,7.8,0,0,1-4.106-4.106,7.7,7.7,0,0,1,0-6.006,7.774,7.774,0,0,1,4.106-4.116,7.674,7.674,0,0,1,6,0,7.77,7.77,0,0,1,4.106,4.116,7.7,7.7,0,0,1,0,6.006,7.794,7.794,0,0,1-4.106,4.106A7.463,7.463,0,0,1,598.667,526.546Zm.01-12.785a4.391,4.391,0,0,0-1.9.417,5.152,5.152,0,0,0-1.541,1.108,5.225,5.225,0,0,0-1.044,1.616,5.008,5.008,0,0,0,0,3.852,5.391,5.391,0,0,0,1.044,1.616,5.057,5.057,0,0,0,1.541,1.118,4.523,4.523,0,0,0,3.793,0,5.061,5.061,0,0,0,1.542-1.118,5.4,5.4,0,0,0,1.045-1.616,5,5,0,0,0,0-3.852,5.229,5.229,0,0,0-1.045-1.616,5.157,5.157,0,0,0-1.542-1.108A4.387,4.387,0,0,0,598.677,513.761Z" transform="translate(-547.692 -511.099)" fill="#054b54"/>
        <path id="Path_659" data-name="Path 659" d="M475.841,586.663v.473h-2.008v-2.79h.534v2.317Z" transform="translate(-462.535 -564.351)" fill="#054b54"/>
        <path id="Path_660" data-name="Path 660" d="M487.922,587.146h-.533V584.36h.533Z" transform="translate(-472.391 -564.361)" fill="#054b54"/>
        <path id="Path_661" data-name="Path 661" d="M497.08,584.819v.69h1.345V586H497.08v1.136h-.533v-2.79h2.05v.473Z" transform="translate(-479.049 -564.351)" fill="#054b54"/>
        <path id="Path_662" data-name="Path 662" d="M510.873,584.819v.7h1.349V586h-1.349v.655h1.521v.48H510.34v-2.79h2.054v.473Z" transform="translate(-489.077 -564.351)" fill="#054b54"/>
        <path id="Path_663" data-name="Path 663" d="M536.179,586.328a1.346,1.346,0,0,1-.225.3,1.5,1.5,0,0,1-.3.233,1.444,1.444,0,0,1-.741.2,1.39,1.39,0,0,1-.56-.114,1.463,1.463,0,0,1-.77-.77,1.432,1.432,0,0,1,0-1.121,1.461,1.461,0,0,1,.77-.769,1.387,1.387,0,0,1,.56-.114,1.437,1.437,0,0,1,.741.2,1.475,1.475,0,0,1,.3.232,1.386,1.386,0,0,1,.225.3l-.5.2a1.1,1.1,0,0,0-.143-.172,1.032,1.032,0,0,0-.181-.141.927.927,0,0,0-.21-.1.766.766,0,0,0-.229-.034.828.828,0,0,0-.357.078.951.951,0,0,0-.288.208,1,1,0,0,0-.194.3.938.938,0,0,0,0,.722,1,1,0,0,0,.194.3.936.936,0,0,0,.288.208.82.82,0,0,0,.357.078.766.766,0,0,0,.229-.034.916.916,0,0,0,.21-.1.978.978,0,0,0,.181-.143,1.155,1.155,0,0,0,.143-.173Z" transform="translate(-505.895 -564.23)" fill="#054b54"/>
        <path id="Path_664" data-name="Path 664" d="M551.591,586.663v.473h-2.008v-2.79h.533v2.317Z" transform="translate(-517.607 -564.351)" fill="#054b54"/>
        <path id="Path_665" data-name="Path 665" d="M563.672,587.146h-.533V584.36h.533Z" transform="translate(-527.463 -564.361)" fill="#054b54"/>
        <path id="Path_666" data-name="Path 666" d="M574.664,587.146l-1.833-1.658v1.658H572.3V584.36h.057l1.833,1.684V584.36h.534v2.786Z" transform="translate(-534.121 -564.361)" fill="#054b54"/>
        <path id="Path_667" data-name="Path 667" d="M588.912,587.146h-.533V584.36h.533Z" transform="translate(-545.813 -564.361)" fill="#054b54"/>
        <path id="Path_668" data-name="Path 668" d="M599.684,586.328a1.346,1.346,0,0,1-.225.3,1.492,1.492,0,0,1-.3.233,1.443,1.443,0,0,1-.741.2,1.39,1.39,0,0,1-.56-.114,1.462,1.462,0,0,1-.77-.77,1.43,1.43,0,0,1,0-1.121,1.46,1.46,0,0,1,.77-.769,1.387,1.387,0,0,1,.56-.114,1.437,1.437,0,0,1,.741.2,1.467,1.467,0,0,1,.3.232,1.386,1.386,0,0,1,.225.3l-.5.2a1.082,1.082,0,0,0-.143-.172,1.043,1.043,0,0,0-.181-.141.926.926,0,0,0-.21-.1.767.767,0,0,0-.229-.034.827.827,0,0,0-.356.078.955.955,0,0,0-.288.208,1,1,0,0,0-.194.3.936.936,0,0,0,0,.722,1,1,0,0,0,.194.3.939.939,0,0,0,.288.208.819.819,0,0,0,.356.078.767.767,0,0,0,.229-.034.915.915,0,0,0,.21-.1.988.988,0,0,0,.181-.143,1.14,1.14,0,0,0,.143-.173Z" transform="translate(-552.064 -564.23)" fill="#054b54"/>
      </g>
    </g>
  </g>
</svg>
