<svg xmlns="http://www.w3.org/2000/svg" width="257" height="257.338" viewBox="0 0 257 257.338">
  <g id="Group_1213" data-name="Group 1213" transform="translate(-272.59 -272.238)">
    <g id="Group_978" data-name="Group 978" transform="translate(272.59 272.238)">
      <g id="Group_977" data-name="Group 977" transform="translate(0 0)">
        <path id="Path_655" data-name="Path 655" d="M400.922,529.576a123.492,123.492,0,0,1-49.776-10.158,129.918,129.918,0,0,1-68.4-68.4,128.259,128.259,0,0,1,0-100.058,129.471,129.471,0,0,1,68.4-68.567,127.86,127.86,0,0,1,99.889,0,129.472,129.472,0,0,1,68.4,68.567,128.259,128.259,0,0,1,0,100.058,129.919,129.919,0,0,1-68.4,68.4A124.333,124.333,0,0,1,400.922,529.576Zm.168-212.98a73.1,73.1,0,0,0-31.6,6.941,85.839,85.839,0,0,0-25.681,18.453,87.157,87.157,0,0,0-17.4,26.92,83.371,83.371,0,0,0,0,64.164,89.855,89.855,0,0,0,17.4,26.92,84.292,84.292,0,0,0,25.681,18.623,75.368,75.368,0,0,0,63.186,0,84.294,84.294,0,0,0,25.681-18.623,89.914,89.914,0,0,0,17.4-26.92,83.347,83.347,0,0,0,0-64.164,87.213,87.213,0,0,0-17.4-26.92,85.841,85.841,0,0,0-25.681-18.453A73.1,73.1,0,0,0,401.09,316.6Z" transform="translate(-272.59 -272.238)" fill="#fff"/>
      </g>
    </g>
    <g id="Group_980" data-name="Group 980" transform="translate(349.341 386.992)">
      <g id="Group_979" data-name="Group 979">
        <path id="Path_656" data-name="Path 656" d="M446.025,538.326a13.064,13.064,0,0,1-5.266-1.075,13.736,13.736,0,0,1-7.236-7.236,13.57,13.57,0,0,1,0-10.586,13.692,13.692,0,0,1,7.236-7.254,13.525,13.525,0,0,1,10.568,0,13.7,13.7,0,0,1,7.237,7.254,13.576,13.576,0,0,1,0,10.586,13.743,13.743,0,0,1-7.237,7.236A13.155,13.155,0,0,1,446.025,538.326Zm.018-22.534a7.736,7.736,0,0,0-3.343.735,9.089,9.089,0,0,0-2.717,1.953,9.218,9.218,0,0,0-1.841,2.848,8.826,8.826,0,0,0,0,6.789,9.509,9.509,0,0,0,1.841,2.848,8.92,8.92,0,0,0,2.717,1.97,7.971,7.971,0,0,0,6.685,0,8.921,8.921,0,0,0,2.718-1.97,9.51,9.51,0,0,0,1.841-2.848,8.821,8.821,0,0,0,0-6.789,9.219,9.219,0,0,0-1.841-2.848,9.09,9.09,0,0,0-2.718-1.953A7.731,7.731,0,0,0,446.042,515.792Z" transform="translate(-432.447 -511.099)" fill="#fff"/>
        <path id="Path_657" data-name="Path 657" d="M539.086,512.216,526.62,538.4h-.287L513.9,512.216h5.517l7.058,15.19,7.057-15.19Z" transform="translate(-474.71 -511.679)" fill="#fff"/>
        <path id="Path_658" data-name="Path 658" d="M604.542,538.326a13.067,13.067,0,0,1-5.267-1.075,13.745,13.745,0,0,1-7.236-7.236,13.571,13.571,0,0,1,0-10.586,13.7,13.7,0,0,1,7.236-7.254,13.526,13.526,0,0,1,10.568,0,13.694,13.694,0,0,1,7.237,7.254,13.568,13.568,0,0,1,0,10.586,13.738,13.738,0,0,1-7.237,7.236A13.156,13.156,0,0,1,604.542,538.326Zm.018-22.534a7.739,7.739,0,0,0-3.343.735,9.083,9.083,0,0,0-2.717,1.953,9.211,9.211,0,0,0-1.841,2.848,8.826,8.826,0,0,0,0,6.789,9.5,9.5,0,0,0,1.841,2.848,8.915,8.915,0,0,0,2.717,1.97,7.971,7.971,0,0,0,6.686,0,8.919,8.919,0,0,0,2.717-1.97,9.508,9.508,0,0,0,1.841-2.848,8.819,8.819,0,0,0,0-6.789,9.216,9.216,0,0,0-1.841-2.848,9.088,9.088,0,0,0-2.717-1.953A7.733,7.733,0,0,0,604.56,515.792Z" transform="translate(-514.693 -511.099)" fill="#fff"/>
        <path id="Path_659" data-name="Path 659" d="M477.373,588.43v.833h-3.54v-4.917h.941v4.084Z" transform="translate(-453.92 -549.103)" fill="#fff"/>
        <path id="Path_660" data-name="Path 660" d="M488.329,589.27h-.94v-4.91h.94Z" transform="translate(-460.954 -549.11)" fill="#fff"/>
        <path id="Path_661" data-name="Path 661" d="M497.487,585.179v1.215h2.372v.867h-2.372v2h-.94v-4.917h3.614v.833Z" transform="translate(-465.705 -549.103)" fill="#fff"/>
        <path id="Path_662" data-name="Path 662" d="M511.28,585.179v1.229h2.378v.853H511.28v1.155h2.68v.846H510.34v-4.917h3.621v.833Z" transform="translate(-472.862 -549.103)" fill="#fff"/>
        <path id="Path_663" data-name="Path 663" d="M538.242,587.967a2.369,2.369,0,0,1-.4.534,2.653,2.653,0,0,1-.521.41,2.546,2.546,0,0,1-1.306.359,2.452,2.452,0,0,1-.988-.2,2.578,2.578,0,0,1-1.357-1.357,2.525,2.525,0,0,1,0-1.975,2.575,2.575,0,0,1,1.357-1.356,2.443,2.443,0,0,1,.988-.2,2.534,2.534,0,0,1,1.306.359,2.606,2.606,0,0,1,.521.409,2.44,2.44,0,0,1,.4.527l-.88.356a1.929,1.929,0,0,0-.252-.3,1.816,1.816,0,0,0-.319-.248,1.633,1.633,0,0,0-.369-.168,1.349,1.349,0,0,0-.4-.061,1.46,1.46,0,0,0-.628.138,1.676,1.676,0,0,0-.507.366,1.765,1.765,0,0,0-.343.534,1.654,1.654,0,0,0,0,1.273,1.77,1.77,0,0,0,.343.53,1.65,1.65,0,0,0,.507.366,1.446,1.446,0,0,0,.628.138,1.351,1.351,0,0,0,.4-.06,1.62,1.62,0,0,0,.369-.168,1.729,1.729,0,0,0,.319-.252,2.043,2.043,0,0,0,.252-.305Z" transform="translate(-484.864 -549.016)" fill="#fff"/>
        <path id="Path_664" data-name="Path 664" d="M553.123,588.43v.833h-3.54v-4.917h.94v4.084Z" transform="translate(-493.223 -549.103)" fill="#fff"/>
        <path id="Path_665" data-name="Path 665" d="M564.079,589.27h-.94v-4.91h.94Z" transform="translate(-500.256 -549.11)" fill="#fff"/>
        <path id="Path_666" data-name="Path 666" d="M576.468,589.27l-3.231-2.922v2.922h-.94v-4.91h.1l3.231,2.969V584.36h.941v4.91Z" transform="translate(-505.008 -549.11)" fill="#fff"/>
        <path id="Path_667" data-name="Path 667" d="M589.319,589.27h-.94v-4.91h.94Z" transform="translate(-513.352 -549.11)" fill="#fff"/>
        <path id="Path_668" data-name="Path 668" d="M601.748,587.967a2.373,2.373,0,0,1-.4.534,2.637,2.637,0,0,1-.521.41,2.545,2.545,0,0,1-1.306.359,2.45,2.45,0,0,1-.987-.2,2.577,2.577,0,0,1-1.357-1.357,2.519,2.519,0,0,1,0-1.975,2.574,2.574,0,0,1,1.357-1.356,2.442,2.442,0,0,1,.987-.2,2.533,2.533,0,0,1,1.306.359,2.591,2.591,0,0,1,.521.409,2.445,2.445,0,0,1,.4.527l-.881.356a1.9,1.9,0,0,0-.251-.3,1.83,1.83,0,0,0-.319-.248,1.631,1.631,0,0,0-.369-.168,1.35,1.35,0,0,0-.4-.061,1.458,1.458,0,0,0-.628.138,1.682,1.682,0,0,0-.507.366,1.764,1.764,0,0,0-.342.534,1.651,1.651,0,0,0,0,1.273,1.769,1.769,0,0,0,.342.53,1.656,1.656,0,0,0,.507.366,1.444,1.444,0,0,0,.628.138,1.352,1.352,0,0,0,.4-.06,1.618,1.618,0,0,0,.369-.168,1.742,1.742,0,0,0,.319-.252,2.01,2.01,0,0,0,.251-.305Z" transform="translate(-517.814 -549.016)" fill="#fff"/>
      </g>
    </g>
  </g>
</svg>
