<svg xmlns="http://www.w3.org/2000/svg" xmlns:xlink="http://www.w3.org/1999/xlink" width="224" height="224.295" viewBox="0 0 224 224.295">
  <defs>
    <radialGradient id="radial-gradient" cx="0.188" cy="0.305" r="0.934" gradientTransform="translate(-0.001)" gradientUnits="objectBoundingBox">
      <stop offset="0" stop-color="#0b352a"/>
      <stop offset="0.109" stop-color="#10392e"/>
      <stop offset="0.239" stop-color="#1e473b"/>
      <stop offset="0.379" stop-color="#365e50"/>
      <stop offset="0.527" stop-color="#587e6d"/>
      <stop offset="0.679" stop-color="#82a792"/>
      <stop offset="0.706" stop-color="#8baf9a"/>
      <stop offset="1" stop-color="#cbdbd0"/>
    </radialGradient>
  </defs>
  <g id="Group_994" data-name="Group 994" transform="translate(-272.59 -272.238)">
    <g id="Group_978" data-name="Group 978" transform="translate(272.59 272.238)">
      <g id="Group_977" data-name="Group 977" transform="translate(0 0)">
        <path id="Path_655" data-name="Path 655" d="M384.443,496.533a107.635,107.635,0,0,1-43.385-8.854,113.236,113.236,0,0,1-59.614-59.615,111.79,111.79,0,0,1,0-87.21,112.846,112.846,0,0,1,59.614-59.763,111.442,111.442,0,0,1,87.063,0,112.847,112.847,0,0,1,59.614,59.763,111.79,111.79,0,0,1,0,87.21,113.237,113.237,0,0,1-59.614,59.615A108.368,108.368,0,0,1,384.443,496.533ZM384.59,310.9a63.714,63.714,0,0,0-27.539,6.05,74.817,74.817,0,0,0-22.384,16.084A75.966,75.966,0,0,0,319.5,356.5a72.666,72.666,0,0,0,0,55.925,78.316,78.316,0,0,0,15.165,23.463,73.468,73.468,0,0,0,22.384,16.231,65.69,65.69,0,0,0,55.073,0,73.469,73.469,0,0,0,22.384-16.231,78.369,78.369,0,0,0,15.168-23.463,72.645,72.645,0,0,0,0-55.925,76.015,76.015,0,0,0-15.168-23.463,74.819,74.819,0,0,0-22.384-16.084A63.709,63.709,0,0,0,384.59,310.9Z" transform="translate(-272.59 -272.238)" fill="url(#radial-gradient)"/>
      </g>
    </g>
    <g id="Group_980" data-name="Group 980" transform="translate(339.486 372.257)">
      <g id="Group_979" data-name="Group 979">
        <path id="Path_656" data-name="Path 656" d="M444.281,534.83a11.387,11.387,0,0,1-4.59-.937,11.973,11.973,0,0,1-6.307-6.307,11.828,11.828,0,0,1,0-9.227,11.934,11.934,0,0,1,6.307-6.323,11.789,11.789,0,0,1,9.211,0,11.94,11.94,0,0,1,6.308,6.323,11.832,11.832,0,0,1,0,9.227,11.978,11.978,0,0,1-6.308,6.307A11.466,11.466,0,0,1,444.281,534.83Zm.016-19.641a6.743,6.743,0,0,0-2.914.64,7.921,7.921,0,0,0-2.368,1.7,8.034,8.034,0,0,0-1.6,2.482,7.692,7.692,0,0,0,0,5.917,8.288,8.288,0,0,0,1.6,2.483,7.775,7.775,0,0,0,2.368,1.717,6.947,6.947,0,0,0,5.827,0,7.776,7.776,0,0,0,2.369-1.717,8.29,8.29,0,0,0,1.6-2.483,7.688,7.688,0,0,0,0-5.917,8.036,8.036,0,0,0-1.6-2.482,7.923,7.923,0,0,0-2.369-1.7A6.738,6.738,0,0,0,444.3,515.189Z" transform="translate(-432.447 -511.099)" fill="#054b54"/>
        <path id="Path_657" data-name="Path 657" d="M535.853,512.216l-10.866,22.825h-.25L513.9,512.216h4.808l6.151,13.239,6.151-13.239Z" transform="translate(-479.742 -511.748)" fill="#054b54"/>
        <path id="Path_658" data-name="Path 658" d="M602.8,534.83a11.389,11.389,0,0,1-4.59-.937,11.981,11.981,0,0,1-6.307-6.307,11.829,11.829,0,0,1,0-9.227,11.942,11.942,0,0,1,6.307-6.323,11.789,11.789,0,0,1,9.211,0,11.936,11.936,0,0,1,6.307,6.323,11.826,11.826,0,0,1,0,9.227,11.974,11.974,0,0,1-6.307,6.307A11.467,11.467,0,0,1,602.8,534.83Zm.015-19.641a6.745,6.745,0,0,0-2.914.64,7.916,7.916,0,0,0-2.368,1.7,8.027,8.027,0,0,0-1.6,2.482,7.692,7.692,0,0,0,0,5.917,8.281,8.281,0,0,0,1.6,2.483,7.77,7.77,0,0,0,2.368,1.717,6.948,6.948,0,0,0,5.827,0,7.775,7.775,0,0,0,2.368-1.717,8.287,8.287,0,0,0,1.6-2.483,7.687,7.687,0,0,0,0-5.917,8.033,8.033,0,0,0-1.6-2.482,7.921,7.921,0,0,0-2.368-1.7A6.74,6.74,0,0,0,602.814,515.189Z" transform="translate(-524.487 -511.099)" fill="#054b54"/>
        <path id="Path_659" data-name="Path 659" d="M476.918,587.906v.726h-3.085v-4.286h.82v3.56Z" transform="translate(-456.477 -553.628)" fill="#054b54"/>
        <path id="Path_660" data-name="Path 660" d="M488.208,588.64h-.819v-4.28h.819Z" transform="translate(-464.348 -553.637)" fill="#054b54"/>
        <path id="Path_661" data-name="Path 661" d="M497.366,585.072v1.059h2.067v.756h-2.067v1.745h-.819v-4.286h3.15v.726Z" transform="translate(-469.665 -553.628)" fill="#054b54"/>
        <path id="Path_662" data-name="Path 662" d="M511.159,585.072v1.071h2.072v.743h-2.072v1.007H513.5v.738H510.34v-4.286H513.5v.726Z" transform="translate(-477.674 -553.628)" fill="#054b54"/>
        <path id="Path_663" data-name="Path 663" d="M537.63,587.481a2.067,2.067,0,0,1-.346.465,2.312,2.312,0,0,1-.454.357,2.219,2.219,0,0,1-1.138.313,2.136,2.136,0,0,1-.861-.176,2.248,2.248,0,0,1-1.183-1.182,2.2,2.2,0,0,1,0-1.722,2.245,2.245,0,0,1,1.183-1.182,2.13,2.13,0,0,1,.861-.176,2.209,2.209,0,0,1,1.138.313,2.27,2.27,0,0,1,.454.357,2.129,2.129,0,0,1,.346.46l-.767.31a1.684,1.684,0,0,0-.22-.264,1.586,1.586,0,0,0-.278-.216,1.42,1.42,0,0,0-.322-.146,1.175,1.175,0,0,0-.351-.053,1.272,1.272,0,0,0-.548.12,1.461,1.461,0,0,0-.442.319,1.538,1.538,0,0,0-.3.465,1.441,1.441,0,0,0,0,1.11,1.542,1.542,0,0,0,.3.462,1.439,1.439,0,0,0,.442.319,1.261,1.261,0,0,0,.548.12,1.177,1.177,0,0,0,.351-.052,1.411,1.411,0,0,0,.322-.146,1.508,1.508,0,0,0,.278-.22,1.778,1.778,0,0,0,.22-.266Z" transform="translate(-491.106 -553.531)" fill="#054b54"/>
        <path id="Path_664" data-name="Path 664" d="M552.668,587.906v.726h-3.085v-4.286h.819v3.56Z" transform="translate(-500.46 -553.628)" fill="#054b54"/>
        <path id="Path_665" data-name="Path 665" d="M563.958,588.64h-.819v-4.28h.819Z" transform="translate(-508.331 -553.637)" fill="#054b54"/>
        <path id="Path_666" data-name="Path 666" d="M575.933,588.64l-2.817-2.547v2.547H572.3v-4.28h.088l2.816,2.588V584.36h.82v4.28Z" transform="translate(-513.648 -553.637)" fill="#054b54"/>
        <path id="Path_667" data-name="Path 667" d="M589.2,588.64h-.82v-4.28h.82Z" transform="translate(-522.986 -553.637)" fill="#054b54"/>
        <path id="Path_668" data-name="Path 668" d="M601.135,587.481a2.069,2.069,0,0,1-.346.465,2.3,2.3,0,0,1-.454.357,2.218,2.218,0,0,1-1.139.313,2.136,2.136,0,0,1-.86-.176,2.246,2.246,0,0,1-1.183-1.182,2.2,2.2,0,0,1,0-1.722,2.243,2.243,0,0,1,1.183-1.182,2.129,2.129,0,0,1,.86-.176,2.208,2.208,0,0,1,1.139.313,2.256,2.256,0,0,1,.454.357,2.131,2.131,0,0,1,.346.46l-.768.31a1.661,1.661,0,0,0-.219-.264,1.6,1.6,0,0,0-.278-.216,1.418,1.418,0,0,0-.322-.146,1.177,1.177,0,0,0-.351-.053,1.271,1.271,0,0,0-.547.12,1.465,1.465,0,0,0-.442.319,1.537,1.537,0,0,0-.3.465,1.438,1.438,0,0,0,0,1.11,1.542,1.542,0,0,0,.3.462,1.444,1.444,0,0,0,.442.319,1.26,1.26,0,0,0,.547.12,1.178,1.178,0,0,0,.351-.052,1.41,1.41,0,0,0,.322-.146,1.518,1.518,0,0,0,.278-.22,1.753,1.753,0,0,0,.219-.266Z" transform="translate(-527.979 -553.531)" fill="#054b54"/>
      </g>
    </g>
  </g>
</svg>
