<svg xmlns="http://www.w3.org/2000/svg" width="135.821" height="136" viewBox="0 0 135.821 136">
  <g id="Group_1206" data-name="Group 1206" transform="translate(-771 -1235)" opacity="1">
    <path id="Path_791" data-name="Path 791" d="M340.412,408.238a65.264,65.264,0,0,1-26.306-5.368,68.66,68.66,0,0,1-36.146-36.147,67.783,67.783,0,0,1,0-52.879,68.423,68.423,0,0,1,36.146-36.237,67.572,67.572,0,0,1,52.79,0,68.424,68.424,0,0,1,36.146,36.237,67.783,67.783,0,0,1,0,52.879A68.661,68.661,0,0,1,366.9,402.87,65.708,65.708,0,0,1,340.412,408.238Zm.089-112.558a38.632,38.632,0,0,0-16.7,3.668,45.365,45.365,0,0,0-13.572,9.752,46.061,46.061,0,0,0-9.2,14.227,44.06,44.06,0,0,0,0,33.91,47.486,47.486,0,0,0,9.2,14.227,44.546,44.546,0,0,0,13.572,9.842,39.831,39.831,0,0,0,33.393,0,44.547,44.547,0,0,0,13.572-9.842,47.518,47.518,0,0,0,9.2-14.227,44.048,44.048,0,0,0,0-33.91,46.092,46.092,0,0,0-9.2-14.227,45.366,45.366,0,0,0-13.572-9.752A38.629,38.629,0,0,0,340.5,295.681Z" transform="translate(498.41 962.762)" fill="#fff"/>
    <g id="Polygon_1" data-name="Polygon 1" transform="translate(863 1281) rotate(90)" fill="none">
      <path d="M22.5,0,45,38H0Z" stroke="none"/>
      <path d="M 22.5 13.73918151855469 L 12.27977752685547 31 L 32.72022247314453 31 L 22.5 13.73918151855469 M 22.5 0 L 45 38 L 0 38 L 22.5 0 Z" stroke="none" fill="#fff"/>
    </g>
  </g>
</svg>
